# xmcd
# Track frame offsets:
# 150
# 13675
# 13987
# 33527
# 53857
# 64232
# 80440
# 93727
# 111565
# 125322
# 140787
# 156725
#
# Disc length: 2273 seconds
# Revision: 0
# Processed by: cddbd v1.4PL0 Copyright (c) Steve Scherf et al.
# Submitted via: VisiTrax 2.9.5.180 - For more info visit www.synapsa.com
#
DISCID=b408df0c
DTITLE=Patsy Cline - Duets
DYEAR=1999
DGENRE=
TTITLE0=That Wonderful Someone--duet with Bob Carlisle
TTITLE1=Patsy Cline --Introduction
TTITLE2=There He Goes---duet with John Berry
TTITLE3=If I Could Only Stay Asleep---duet with Beth Nielsen Chapman
TTITLE4=Too Many Screcets---duet with Glen Campbell
TTITLE5=Crazy Dreams---duet with Mila Mason
TTITLE6=Life Railway To Heven--duet with Willie Nelson
TTITLE7=Just Out Of Reach---duet with Waylon Jennings
TTITLE8=I Can´t Forget You---Duet with Crystal Gayle
TTITLE9=Walkin´ After Midnight---duet with Michelle Wright
TTITLE10=Hungry For Love--extended version
TTITLE11=How Can I Face Tomorrow--extended version
EXTD=Old Patsy Cline Recordings Remixet With New Duet Partners
EXTT0=
EXTT1=
EXTT2=
EXTT3=
EXTT4=
EXTT5=
EXTT6=
EXTT7=
EXTT8=
EXTT9=
EXTT10=
EXTT11=
PLAYORDER=
